<svg xmlns="http://www.w3.org/2000/svg" xmlns:xlink="http://www.w3.org/1999/xlink" width="500" zoomAndPan="magnify" viewBox="0 0 375 374.999991" height="500" preserveAspectRatio="xMidYMid meet" version="1.0"><defs><g/><clipPath id="5d7459ecf7"><path d="M 90.179688 64.507812 L 281.429688 64.507812 L 281.429688 258.757812 L 90.179688 258.757812 Z M 90.179688 64.507812 " clip-rule="nonzero"/></clipPath><clipPath id="9c09a3226f"><path d="M 90.179688 155 L 275 155 L 275 258.757812 L 90.179688 258.757812 Z M 90.179688 155 " clip-rule="nonzero"/></clipPath></defs><rect x="-37.5" width="450" fill="#ffffff" y="-37.499999" height="449.999989" fill-opacity="1"/><rect x="-37.5" width="450" fill="#050a30" y="-37.499999" height="449.999989" fill-opacity="1"/><g clip-path="url(#5d7459ecf7)"><path fill="#f4f6fc" d="M 236.597656 155.710938 L 187.152344 155.710938 L 187.152344 191.777344 L 223.582031 191.777344 C 214.539062 203.167969 201.550781 210.972656 187.152344 210.972656 C 159.886719 210.972656 137.683594 188.773438 137.683594 161.503906 C 137.683594 134.238281 159.886719 112.035156 187.152344 112.035156 C 204.386719 112.035156 219.582031 120.90625 228.429688 134.3125 L 262.359375 100.378906 C 244.59375 78.515625 217.496094 64.554688 187.152344 64.554688 C 133.589844 64.554688 90.203125 107.964844 90.203125 161.503906 C 90.203125 215.046875 130.972656 258.453125 184.511719 258.453125 C 238.050781 258.453125 281.265625 209.253906 281.265625 155.710938 Z M 236.597656 155.710938 " fill-opacity="1" fill-rule="nonzero"/></g><g clip-path="url(#9c09a3226f)"><path fill="#5cb6f9" d="M 187.152344 210.972656 C 159.886719 210.972656 137.683594 188.773438 137.683594 161.503906 C 137.683594 159.566406 137.804688 157.652344 138.023438 155.785156 L 90.375 155.785156 C 90.253906 157.675781 90.179688 159.589844 90.179688 161.503906 C 90.179688 215.046875 130.945312 258.453125 184.488281 258.453125 C 225.570312 258.453125 260.566406 229.464844 274.625 191.777344 L 223.582031 191.777344 C 214.515625 203.167969 201.550781 210.972656 187.152344 210.972656 Z M 187.152344 210.972656 " fill-opacity="1" fill-rule="nonzero"/></g><path fill="#154686" d="M 206.785156 174.398438 L 258.214844 174.398438 C 252.519531 209.300781 221.882812 235.429688 186.28125 235.429688 C 146.070312 235.429688 113.375 202.734375 113.375 162.523438 C 113.375 122.3125 146.070312 89.617188 186.28125 89.617188 C 202.082031 89.617188 217.132812 94.585938 229.761719 104.015625 L 231.578125 101.589844 C 218.417969 91.800781 202.738281 86.613281 186.28125 86.613281 C 144.398438 86.589844 110.34375 120.640625 110.34375 162.523438 C 110.34375 204.40625 144.421875 238.457031 186.28125 238.457031 C 223.96875 238.457031 256.300781 210.34375 261.488281 173.066406 L 261.730469 171.34375 L 206.785156 171.34375 Z M 206.785156 174.398438 " fill-opacity="1" fill-rule="nonzero"/><path fill="#154686" d="M 240.390625 100.464844 C 240.546875 101.125 240.636719 101.796875 240.664062 102.472656 C 240.6875 103.152344 240.644531 103.828125 240.535156 104.5 C 240.425781 105.171875 240.253906 105.824219 240.015625 106.460938 C 239.777344 107.097656 239.480469 107.703125 239.125 108.28125 C 238.765625 108.859375 238.355469 109.398438 237.894531 109.894531 C 237.429688 110.394531 236.921875 110.839844 236.371094 111.238281 C 235.820312 111.636719 235.234375 111.976562 234.617188 112.257812 C 234 112.539062 233.359375 112.757812 232.699219 112.914062 C 232.035156 113.070312 231.367188 113.160156 230.6875 113.183594 C 230.007812 113.210938 229.332031 113.167969 228.664062 113.058594 C 227.992188 112.949219 227.335938 112.777344 226.699219 112.539062 C 226.0625 112.300781 225.457031 112.003906 224.878906 111.644531 C 224.300781 111.289062 223.761719 110.878906 223.265625 110.414062 C 222.769531 109.953125 222.320312 109.445312 221.925781 108.894531 C 221.527344 108.34375 221.1875 107.757812 220.90625 107.140625 C 220.621094 106.523438 220.402344 105.882812 220.246094 105.21875 C 220.089844 104.558594 220 103.890625 219.976562 103.210938 C 219.953125 102.53125 219.996094 101.855469 220.105469 101.183594 C 220.210938 100.515625 220.386719 99.859375 220.625 99.222656 C 220.859375 98.585938 221.160156 97.980469 221.515625 97.402344 C 221.871094 96.824219 222.28125 96.285156 222.746094 95.789062 C 223.210938 95.292969 223.714844 94.84375 224.265625 94.445312 C 224.820312 94.050781 225.402344 93.710938 226.023438 93.425781 C 226.640625 93.144531 227.28125 92.925781 227.941406 92.769531 C 228.601562 92.613281 229.273438 92.523438 229.953125 92.5 C 230.628906 92.476562 231.304688 92.519531 231.976562 92.625 C 232.648438 92.734375 233.300781 92.910156 233.9375 93.144531 C 234.574219 93.382812 235.183594 93.679688 235.761719 94.039062 C 236.335938 94.394531 236.875 94.804688 237.371094 95.269531 C 237.871094 95.730469 238.316406 96.238281 238.714844 96.789062 C 239.113281 97.339844 239.453125 97.925781 239.734375 98.542969 C 240.015625 99.164062 240.234375 99.800781 240.390625 100.464844 Z M 240.390625 100.464844 " fill-opacity="1" fill-rule="nonzero"/><path fill="#f4f6fc" d="M 230.949219 97.058594 L 229.664062 97.058594 L 229.664062 102.222656 L 224.527344 102.222656 L 224.527344 103.480469 L 229.664062 103.480469 L 229.664062 108.644531 L 230.949219 108.644531 L 230.949219 103.480469 L 236.113281 103.480469 L 236.113281 102.222656 L 230.949219 102.222656 Z M 230.949219 97.058594 " fill-opacity="1" fill-rule="nonzero"/><path fill="#154686" d="M 217.132812 173.140625 C 217.132812 173.820312 217.066406 174.492188 216.933594 175.15625 C 216.804688 175.824219 216.605469 176.472656 216.347656 177.097656 C 216.085938 177.726562 215.769531 178.324219 215.390625 178.886719 C 215.011719 179.453125 214.582031 179.976562 214.101562 180.457031 C 213.621094 180.9375 213.101562 181.367188 212.535156 181.742188 C 211.96875 182.121094 211.375 182.441406 210.746094 182.699219 C 210.117188 182.960938 209.46875 183.15625 208.804688 183.289062 C 208.136719 183.421875 207.464844 183.488281 206.785156 183.488281 C 206.105469 183.488281 205.433594 183.421875 204.765625 183.289062 C 204.097656 183.15625 203.453125 182.960938 202.824219 182.699219 C 202.195312 182.441406 201.601562 182.121094 201.035156 181.742188 C 200.46875 181.367188 199.949219 180.9375 199.46875 180.457031 C 198.988281 179.976562 198.558594 179.453125 198.179688 178.886719 C 197.800781 178.324219 197.484375 177.726562 197.222656 177.097656 C 196.964844 176.472656 196.765625 175.824219 196.632812 175.15625 C 196.503906 174.492188 196.4375 173.820312 196.4375 173.140625 C 196.4375 172.460938 196.503906 171.785156 196.632812 171.121094 C 196.765625 170.453125 196.964844 169.804688 197.222656 169.179688 C 197.484375 168.550781 197.800781 167.953125 198.179688 167.390625 C 198.558594 166.824219 198.988281 166.300781 199.46875 165.820312 C 199.949219 165.339844 200.46875 164.910156 201.035156 164.535156 C 201.601562 164.15625 202.195312 163.835938 202.824219 163.578125 C 203.453125 163.316406 204.097656 163.121094 204.765625 162.988281 C 205.433594 162.855469 206.105469 162.789062 206.785156 162.789062 C 207.464844 162.789062 208.136719 162.855469 208.804688 162.988281 C 209.46875 163.121094 210.117188 163.316406 210.746094 163.578125 C 211.375 163.835938 211.96875 164.15625 212.535156 164.535156 C 213.101562 164.910156 213.621094 165.339844 214.101562 165.820312 C 214.582031 166.300781 215.011719 166.824219 215.390625 167.390625 C 215.769531 167.953125 216.085938 168.550781 216.347656 169.179688 C 216.605469 169.804688 216.804688 170.453125 216.933594 171.121094 C 217.066406 171.785156 217.132812 172.460938 217.132812 173.140625 Z M 217.132812 173.140625 " fill-opacity="1" fill-rule="nonzero"/><path fill="#f4f6fc" d="M 200.992188 172.605469 L 212.578125 172.605469 L 212.578125 173.988281 L 200.992188 173.988281 Z M 200.992188 172.605469 " fill-opacity="1" fill-rule="nonzero"/><g fill="#f4f6fc" fill-opacity="1"><g transform="translate(73.390074, 284.252852)"><g><path d="M 15.953125 -23.59375 C 17.296875 -23.59375 18.703125 -23.441406 20.171875 -23.140625 C 21.640625 -22.847656 23.109375 -22.359375 24.578125 -21.671875 C 25.410156 -21.285156 25.925781 -21.09375 26.125 -21.09375 C 26.394531 -21.09375 26.609375 -21.210938 26.765625 -21.453125 L 27.203125 -21.265625 L 24.109375 -16.015625 L 23.65625 -16.296875 C 23.695312 -16.515625 23.71875 -16.695312 23.71875 -16.84375 C 23.71875 -17.101562 23.503906 -17.40625 23.078125 -17.75 C 22.648438 -18.101562 22.082031 -18.429688 21.375 -18.734375 C 20.675781 -19.035156 19.867188 -19.289062 18.953125 -19.5 C 18.035156 -19.71875 17.085938 -19.828125 16.109375 -19.828125 C 14.722656 -19.828125 13.425781 -19.65625 12.21875 -19.3125 C 11.019531 -18.96875 9.984375 -18.457031 9.109375 -17.78125 C 8.234375 -17.113281 7.546875 -16.28125 7.046875 -15.28125 C 6.546875 -14.28125 6.296875 -13.109375 6.296875 -11.765625 C 6.296875 -10.398438 6.535156 -9.203125 7.015625 -8.171875 C 7.492188 -7.140625 8.148438 -6.269531 8.984375 -5.5625 C 9.816406 -4.851562 10.796875 -4.320312 11.921875 -3.96875 C 13.054688 -3.625 14.269531 -3.453125 15.5625 -3.453125 C 16.988281 -3.453125 18.332031 -3.625 19.59375 -3.96875 C 20.851562 -4.320312 21.960938 -4.84375 22.921875 -5.53125 L 22.921875 -8.1875 L 17.390625 -8.1875 C 17.128906 -8.1875 16.898438 -8.117188 16.703125 -7.984375 C 16.503906 -7.859375 16.40625 -7.671875 16.40625 -7.421875 L 15.953125 -7.421875 L 15.953125 -13.046875 L 16.40625 -13.046875 C 16.40625 -12.785156 16.503906 -12.59375 16.703125 -12.46875 C 16.898438 -12.34375 17.128906 -12.28125 17.390625 -12.28125 L 28.0625 -12.28125 L 28.0625 -11.828125 C 27.664062 -11.765625 27.46875 -11.4375 27.46875 -10.84375 L 27.46875 -4.5 C 27.46875 -4.289062 27.503906 -4.113281 27.578125 -3.96875 C 27.648438 -3.832031 27.800781 -3.742188 28.03125 -3.703125 L 28.03125 -3.265625 C 26.09375 -2.148438 24.039062 -1.273438 21.875 -0.640625 C 19.71875 -0.00390625 17.613281 0.3125 15.5625 0.3125 C 13.5 0.3125 11.617188 0.046875 9.921875 -0.484375 C 8.234375 -1.015625 6.78125 -1.789062 5.5625 -2.8125 C 4.34375 -3.832031 3.40625 -5.078125 2.75 -6.546875 C 2.09375 -8.023438 1.765625 -9.691406 1.765625 -11.546875 C 1.765625 -12.972656 1.960938 -14.257812 2.359375 -15.40625 C 2.765625 -16.5625 3.3125 -17.585938 4 -18.484375 C 4.695312 -19.378906 5.515625 -20.148438 6.453125 -20.796875 C 7.390625 -21.441406 8.378906 -21.972656 9.421875 -22.390625 C 10.472656 -22.804688 11.554688 -23.109375 12.671875 -23.296875 C 13.796875 -23.492188 14.890625 -23.59375 15.953125 -23.59375 Z M 15.953125 -23.59375 "/></g></g></g><g fill="#f4f6fc" fill-opacity="1"><g transform="translate(108.460474, 284.252852)"><g><path d="M 6.296875 -11.640625 C 6.296875 -10.316406 6.519531 -9.148438 6.96875 -8.140625 C 7.414062 -7.128906 8.03125 -6.273438 8.8125 -5.578125 C 9.601562 -4.890625 10.535156 -4.363281 11.609375 -4 C 12.691406 -3.632812 13.851562 -3.453125 15.09375 -3.453125 C 16.394531 -3.453125 17.585938 -3.644531 18.671875 -4.03125 C 19.753906 -4.414062 20.679688 -4.957031 21.453125 -5.65625 C 22.222656 -6.363281 22.816406 -7.222656 23.234375 -8.234375 C 23.660156 -9.242188 23.875 -10.378906 23.875 -11.640625 C 23.875 -12.921875 23.65625 -14.066406 23.21875 -15.078125 C 22.78125 -16.085938 22.171875 -16.941406 21.390625 -17.640625 C 20.617188 -18.347656 19.6875 -18.890625 18.59375 -19.265625 C 17.507812 -19.640625 16.332031 -19.828125 15.0625 -19.828125 C 13.84375 -19.828125 12.695312 -19.644531 11.625 -19.28125 C 10.5625 -18.914062 9.632812 -18.382812 8.84375 -17.6875 C 8.0625 -17 7.441406 -16.144531 6.984375 -15.125 C 6.523438 -14.101562 6.296875 -12.941406 6.296875 -11.640625 Z M 15.09375 -23.59375 C 16.945312 -23.59375 18.679688 -23.332031 20.296875 -22.8125 C 21.921875 -22.289062 23.332031 -21.519531 24.53125 -20.5 C 25.738281 -19.488281 26.6875 -18.25 27.375 -16.78125 C 28.070312 -15.3125 28.421875 -13.628906 28.421875 -11.734375 C 28.421875 -9.679688 28.050781 -7.898438 27.3125 -6.390625 C 26.582031 -4.878906 25.609375 -3.628906 24.390625 -2.640625 C 23.171875 -1.648438 21.765625 -0.910156 20.171875 -0.421875 C 18.578125 0.0664062 16.914062 0.3125 15.1875 0.3125 C 13.226562 0.3125 11.425781 0.0390625 9.78125 -0.5 C 8.144531 -1.039062 6.726562 -1.820312 5.53125 -2.84375 C 4.332031 -3.863281 3.40625 -5.109375 2.75 -6.578125 C 2.09375 -8.054688 1.765625 -9.710938 1.765625 -11.546875 C 1.765625 -13.546875 2.117188 -15.296875 2.828125 -16.796875 C 3.546875 -18.296875 4.507812 -19.550781 5.71875 -20.5625 C 6.9375 -21.582031 8.347656 -22.34375 9.953125 -22.84375 C 11.566406 -23.34375 13.28125 -23.59375 15.09375 -23.59375 Z M 15.09375 -23.59375 "/></g></g></g><g fill="#f4f6fc" fill-opacity="1"><g transform="translate(143.530874, 284.252852)"><g><path d="M 17.328125 -3.765625 C 18.285156 -3.765625 19.144531 -3.90625 19.90625 -4.1875 C 20.675781 -4.46875 21.332031 -4.914062 21.875 -5.53125 C 22.425781 -6.144531 22.847656 -6.945312 23.140625 -7.9375 C 23.441406 -8.9375 23.59375 -10.160156 23.59375 -11.609375 C 23.59375 -14.335938 22.992188 -16.332031 21.796875 -17.59375 C 20.609375 -18.863281 18.742188 -19.5 16.203125 -19.5 L 7.859375 -19.5 L 7.859375 -3.765625 Z M 16.65625 -23.265625 C 20.300781 -23.265625 23.125 -22.289062 25.125 -20.34375 C 27.125 -18.394531 28.125 -15.492188 28.125 -11.640625 C 28.125 -9.648438 27.859375 -7.925781 27.328125 -6.46875 C 26.796875 -5.007812 26.050781 -3.800781 25.09375 -2.84375 C 24.132812 -1.882812 22.992188 -1.171875 21.671875 -0.703125 C 20.347656 -0.234375 18.910156 0 17.359375 0 L 2.421875 0 L 2.421875 -0.453125 C 2.785156 -0.453125 3.023438 -0.519531 3.140625 -0.65625 C 3.265625 -0.789062 3.328125 -1.019531 3.328125 -1.34375 L 3.328125 -21.9375 C 3.328125 -22.226562 3.269531 -22.445312 3.15625 -22.59375 C 3.050781 -22.75 2.804688 -22.828125 2.421875 -22.828125 L 2.421875 -23.265625 Z M 16.65625 -23.265625 "/></g></g></g><g fill="#f4f6fc" fill-opacity="1"><g transform="translate(178.601279, 284.252852)"><g><path d="M 13.78125 -23.59375 C 15.207031 -23.59375 16.59375 -23.441406 17.9375 -23.140625 C 19.28125 -22.847656 20.535156 -22.457031 21.703125 -21.96875 C 22.066406 -21.8125 22.445312 -21.632812 22.84375 -21.4375 C 23.238281 -21.25 23.519531 -21.15625 23.6875 -21.15625 C 23.90625 -21.15625 24.066406 -21.234375 24.171875 -21.390625 L 24.6875 -21.234375 L 22.21875 -16.4375 L 21.703125 -16.71875 C 21.742188 -16.882812 21.765625 -17.035156 21.765625 -17.171875 C 21.765625 -17.253906 21.582031 -17.441406 21.21875 -17.734375 C 20.863281 -18.035156 20.335938 -18.332031 19.640625 -18.625 C 18.953125 -18.925781 18.09375 -19.203125 17.0625 -19.453125 C 16.039062 -19.703125 14.859375 -19.828125 13.515625 -19.828125 C 11.210938 -19.828125 9.453125 -19.507812 8.234375 -18.875 C 7.023438 -18.25 6.421875 -17.390625 6.421875 -16.296875 C 6.421875 -15.765625 6.597656 -15.351562 6.953125 -15.0625 C 7.304688 -14.78125 7.820312 -14.566406 8.5 -14.421875 C 9.1875 -14.285156 10.015625 -14.203125 10.984375 -14.171875 C 11.953125 -14.140625 13.066406 -14.125 14.328125 -14.125 C 15.921875 -14.125 17.390625 -14.03125 18.734375 -13.84375 C 20.078125 -13.65625 21.226562 -13.300781 22.1875 -12.78125 C 23.144531 -12.269531 23.894531 -11.566406 24.4375 -10.671875 C 24.976562 -9.773438 25.25 -8.613281 25.25 -7.1875 C 25.25 -6.0625 24.972656 -5.035156 24.421875 -4.109375 C 23.867188 -3.179688 23.0625 -2.382812 22 -1.71875 C 20.945312 -1.0625 19.660156 -0.554688 18.140625 -0.203125 C 16.617188 0.140625 14.890625 0.3125 12.953125 0.3125 C 8.835938 0.3125 5.550781 -0.390625 3.09375 -1.796875 C 2.601562 -2.046875 2.316406 -2.171875 2.234375 -2.171875 C 2.109375 -2.171875 2.015625 -2.140625 1.953125 -2.078125 C 1.890625 -2.015625 1.828125 -1.960938 1.765625 -1.921875 L 1.34375 -2.015625 L 4 -7.453125 L 4.5 -7.1875 C 4.5 -7.125 4.488281 -7.054688 4.46875 -6.984375 C 4.445312 -6.910156 4.4375 -6.800781 4.4375 -6.65625 C 4.457031 -6.1875 4.707031 -5.753906 5.1875 -5.359375 C 5.675781 -4.960938 6.300781 -4.625 7.0625 -4.34375 C 7.832031 -4.070312 8.707031 -3.851562 9.6875 -3.6875 C 10.664062 -3.53125 11.664062 -3.453125 12.6875 -3.453125 C 15.207031 -3.453125 17.128906 -3.753906 18.453125 -4.359375 C 19.785156 -4.972656 20.453125 -5.8125 20.453125 -6.875 C 20.453125 -7.570312 20.234375 -8.113281 19.796875 -8.5 C 19.367188 -8.882812 18.769531 -9.164062 18 -9.34375 C 17.226562 -9.53125 16.304688 -9.644531 15.234375 -9.6875 C 14.160156 -9.726562 12.984375 -9.757812 11.703125 -9.78125 C 10.171875 -9.800781 8.796875 -9.910156 7.578125 -10.109375 C 6.359375 -10.316406 5.328125 -10.65625 4.484375 -11.125 C 3.648438 -11.59375 3.007812 -12.21875 2.5625 -13 C 2.113281 -13.789062 1.890625 -14.785156 1.890625 -15.984375 C 1.890625 -17.242188 2.1875 -18.347656 2.78125 -19.296875 C 3.375 -20.242188 4.195312 -21.035156 5.25 -21.671875 C 6.3125 -22.316406 7.570312 -22.796875 9.03125 -23.109375 C 10.488281 -23.429688 12.070312 -23.59375 13.78125 -23.59375 Z M 13.78125 -23.59375 "/></g></g></g><g fill="#f4f6fc" fill-opacity="1"><g transform="translate(210.123135, 284.252852)"><g><path d="M 24.71875 -18.671875 L 24.265625 -18.671875 C 24.265625 -19.222656 23.910156 -19.5 23.203125 -19.5 L 7.796875 -19.5 L 7.796875 -13.8125 L 17.84375 -13.8125 C 18.175781 -13.8125 18.4375 -13.867188 18.625 -13.984375 C 18.820312 -14.097656 18.921875 -14.316406 18.921875 -14.640625 L 19.375 -14.640625 L 19.375 -9.265625 L 18.921875 -9.265625 C 18.921875 -9.773438 18.570312 -10.03125 17.875 -10.03125 L 7.796875 -10.03125 L 7.796875 -3.765625 L 23.46875 -3.765625 C 24.1875 -3.765625 24.546875 -4.023438 24.546875 -4.546875 L 25 -4.546875 L 25 0.703125 L 24.546875 0.703125 C 24.546875 0.234375 24.1875 0 23.46875 0 L 2.421875 0 L 2.421875 -0.453125 C 2.765625 -0.453125 2.988281 -0.515625 3.09375 -0.640625 C 3.207031 -0.765625 3.265625 -1.007812 3.265625 -1.375 L 3.265625 -21.859375 C 3.265625 -22.203125 3.210938 -22.445312 3.109375 -22.59375 C 3.015625 -22.75 2.785156 -22.828125 2.421875 -22.828125 L 2.421875 -23.265625 L 23.171875 -23.265625 C 23.898438 -23.265625 24.265625 -23.503906 24.265625 -23.984375 L 24.71875 -23.984375 Z M 24.71875 -18.671875 "/></g></g></g><g fill="#f4f6fc" fill-opacity="1"><g transform="translate(241.644991, 284.252852)"><g><path d="M 9.359375 -23.265625 L 9.359375 -22.828125 C 8.984375 -22.828125 8.742188 -22.78125 8.640625 -22.6875 C 8.546875 -22.601562 8.5 -22.519531 8.5 -22.4375 C 8.5 -22.332031 8.617188 -22.164062 8.859375 -21.9375 L 22.734375 -7.1875 L 22.734375 -21.9375 C 22.734375 -22.269531 22.679688 -22.5 22.578125 -22.625 C 22.484375 -22.757812 22.257812 -22.828125 21.90625 -22.828125 L 21.90625 -23.265625 L 27.625 -23.265625 L 27.625 -22.828125 C 27.300781 -22.828125 27.078125 -22.753906 26.953125 -22.609375 C 26.828125 -22.472656 26.765625 -22.222656 26.765625 -21.859375 L 26.765625 -1.4375 C 26.765625 -1.070312 26.820312 -0.816406 26.9375 -0.671875 C 27.050781 -0.523438 27.28125 -0.453125 27.625 -0.453125 L 27.625 0 L 21.703125 0 L 21.703125 -0.453125 C 21.878906 -0.453125 22.03125 -0.46875 22.15625 -0.5 C 22.28125 -0.53125 22.34375 -0.597656 22.34375 -0.703125 C 22.34375 -0.828125 22.289062 -0.945312 22.1875 -1.0625 C 22.082031 -1.1875 21.941406 -1.34375 21.765625 -1.53125 L 7.359375 -17 L 7.359375 -1.34375 C 7.359375 -1.039062 7.410156 -0.816406 7.515625 -0.671875 C 7.617188 -0.523438 7.851562 -0.453125 8.21875 -0.453125 L 8.21875 0 L 2.5625 0 L 2.5625 -0.453125 C 2.894531 -0.453125 3.101562 -0.519531 3.1875 -0.65625 C 3.28125 -0.789062 3.328125 -1.007812 3.328125 -1.3125 L 3.328125 -21.9375 C 3.328125 -22.269531 3.28125 -22.5 3.1875 -22.625 C 3.101562 -22.757812 2.894531 -22.828125 2.5625 -22.828125 L 2.5625 -23.265625 Z M 9.359375 -23.265625 "/></g></g></g><g fill="#f4f6fc" fill-opacity="1"><g transform="translate(276.715386, 284.252852)"><g><path d="M 0.921875 -24.046875 L 1.375 -24.046875 C 1.375 -23.523438 1.738281 -23.265625 2.46875 -23.265625 L 22.4375 -23.265625 C 23.144531 -23.265625 23.5 -23.523438 23.5 -24.046875 L 23.9375 -24.046875 L 23.9375 -18.703125 L 23.5 -18.703125 C 23.5 -19.234375 23.132812 -19.5 22.40625 -19.5 L 14.703125 -19.5 L 14.703125 -1.34375 C 14.703125 -1.019531 14.765625 -0.789062 14.890625 -0.65625 C 15.023438 -0.519531 15.296875 -0.453125 15.703125 -0.453125 L 15.703125 0 L 9.203125 0 L 9.203125 -0.453125 C 9.609375 -0.453125 9.867188 -0.519531 9.984375 -0.65625 C 10.109375 -0.789062 10.171875 -1.019531 10.171875 -1.34375 L 10.171875 -19.5 L 2.46875 -19.5 C 1.738281 -19.5 1.375 -19.234375 1.375 -18.703125 L 0.921875 -18.703125 Z M 0.921875 -24.046875 "/></g></g></g><g fill="#f4f6fc" fill-opacity="1"><g transform="translate(69.880539, 311.278895)"><g><path d="M 14.5625 -11.328125 L 14.28125 -11.328125 C 14.28125 -11.671875 14.0625 -11.84375 13.625 -11.84375 L 4.78125 -11.84375 L 4.78125 -8.390625 L 10.453125 -8.390625 C 10.679688 -8.390625 10.851562 -8.421875 10.96875 -8.484375 C 11.082031 -8.554688 11.140625 -8.691406 11.140625 -8.890625 L 11.40625 -8.890625 L 11.40625 -5.625 L 11.140625 -5.625 C 11.140625 -5.9375 10.910156 -6.09375 10.453125 -6.09375 L 4.78125 -6.09375 L 4.78125 -0.828125 C 4.78125 -0.609375 4.8125 -0.457031 4.875 -0.375 C 4.9375 -0.300781 5.070312 -0.265625 5.28125 -0.265625 L 5.28125 0 L 1.46875 0 L 1.46875 -0.265625 C 1.695312 -0.265625 1.84375 -0.300781 1.90625 -0.375 C 1.976562 -0.457031 2.015625 -0.609375 2.015625 -0.828125 L 2.015625 -13.296875 C 2.015625 -13.503906 1.984375 -13.648438 1.921875 -13.734375 C 1.859375 -13.816406 1.707031 -13.859375 1.46875 -13.859375 L 1.46875 -14.125 L 13.625 -14.125 C 14.0625 -14.125 14.28125 -14.269531 14.28125 -14.5625 L 14.5625 -14.5625 Z M 14.5625 -11.328125 "/></g></g></g><g fill="#f4f6fc" fill-opacity="1"><g transform="translate(87.308193, 311.278895)"><g><path d="M 5.859375 -14.125 L 5.859375 -13.859375 C 5.566406 -13.859375 5.375 -13.816406 5.28125 -13.734375 C 5.1875 -13.660156 5.140625 -13.507812 5.140625 -13.28125 L 5.140625 -0.8125 C 5.140625 -0.59375 5.191406 -0.445312 5.296875 -0.375 C 5.410156 -0.300781 5.597656 -0.265625 5.859375 -0.265625 L 5.859375 0 L 1.6875 0 L 1.6875 -0.265625 C 1.945312 -0.265625 2.128906 -0.300781 2.234375 -0.375 C 2.335938 -0.445312 2.390625 -0.59375 2.390625 -0.8125 L 2.390625 -13.28125 C 2.390625 -13.507812 2.347656 -13.660156 2.265625 -13.734375 C 2.179688 -13.816406 1.988281 -13.859375 1.6875 -13.859375 L 1.6875 -14.125 Z M 5.859375 -14.125 "/></g></g></g><g fill="#f4f6fc" fill-opacity="1"><g transform="translate(97.186787, 311.278895)"><g><path d="M 5.6875 -14.125 L 5.6875 -13.859375 C 5.457031 -13.859375 5.3125 -13.832031 5.25 -13.78125 C 5.1875 -13.726562 5.15625 -13.675781 5.15625 -13.625 C 5.15625 -13.5625 5.226562 -13.457031 5.375 -13.3125 L 13.796875 -4.359375 L 13.796875 -13.3125 C 13.796875 -13.519531 13.765625 -13.660156 13.703125 -13.734375 C 13.648438 -13.816406 13.515625 -13.859375 13.296875 -13.859375 L 13.296875 -14.125 L 16.765625 -14.125 L 16.765625 -13.859375 C 16.566406 -13.859375 16.429688 -13.816406 16.359375 -13.734375 C 16.285156 -13.648438 16.25 -13.5 16.25 -13.28125 L 16.25 -0.875 C 16.25 -0.65625 16.28125 -0.5 16.34375 -0.40625 C 16.414062 -0.3125 16.554688 -0.265625 16.765625 -0.265625 L 16.765625 0 L 13.171875 0 L 13.171875 -0.265625 C 13.273438 -0.265625 13.363281 -0.273438 13.4375 -0.296875 C 13.519531 -0.316406 13.5625 -0.359375 13.5625 -0.421875 C 13.5625 -0.503906 13.53125 -0.578125 13.46875 -0.640625 C 13.40625 -0.710938 13.320312 -0.8125 13.21875 -0.9375 L 4.46875 -10.328125 L 4.46875 -0.8125 C 4.46875 -0.632812 4.5 -0.5 4.5625 -0.40625 C 4.625 -0.3125 4.765625 -0.265625 4.984375 -0.265625 L 4.984375 0 L 1.546875 0 L 1.546875 -0.265625 C 1.753906 -0.265625 1.882812 -0.304688 1.9375 -0.390625 C 1.988281 -0.484375 2.015625 -0.617188 2.015625 -0.796875 L 2.015625 -13.3125 C 2.015625 -13.519531 1.988281 -13.660156 1.9375 -13.734375 C 1.882812 -13.816406 1.753906 -13.859375 1.546875 -13.859375 L 1.546875 -14.125 Z M 5.6875 -14.125 "/></g></g></g><g fill="#f4f6fc" fill-opacity="1"><g transform="translate(117.835884, 311.278895)"><g><path d="M 5.625 -14.125 L 5.625 -13.859375 C 5.351562 -13.859375 5.21875 -13.765625 5.21875 -13.578125 C 5.21875 -13.503906 5.316406 -13.34375 5.515625 -13.09375 L 8.15625 -9.5625 L 10.90625 -13.125 C 10.957031 -13.1875 11.015625 -13.265625 11.078125 -13.359375 C 11.140625 -13.453125 11.171875 -13.535156 11.171875 -13.609375 C 11.171875 -13.679688 11.140625 -13.738281 11.078125 -13.78125 C 11.015625 -13.832031 10.9375 -13.859375 10.84375 -13.859375 L 10.84375 -14.125 L 15.15625 -14.125 L 15.15625 -13.859375 C 14.894531 -13.847656 14.679688 -13.789062 14.515625 -13.6875 C 14.347656 -13.582031 14.140625 -13.367188 13.890625 -13.046875 L 9.671875 -7.59375 L 14.78125 -0.78125 C 14.925781 -0.59375 15.050781 -0.460938 15.15625 -0.390625 C 15.257812 -0.328125 15.410156 -0.285156 15.609375 -0.265625 L 15.609375 0 L 11.0625 0 L 11.0625 -0.265625 C 11.21875 -0.265625 11.316406 -0.285156 11.359375 -0.328125 C 11.410156 -0.367188 11.4375 -0.4375 11.4375 -0.53125 C 11.4375 -0.613281 11.363281 -0.742188 11.21875 -0.921875 C 11.082031 -1.097656 10.898438 -1.34375 10.671875 -1.65625 L 7.890625 -5.3125 L 4.734375 -1.234375 C 4.585938 -1.054688 4.472656 -0.914062 4.390625 -0.8125 C 4.316406 -0.707031 4.28125 -0.613281 4.28125 -0.53125 C 4.28125 -0.351562 4.421875 -0.265625 4.703125 -0.265625 L 4.703125 0 L 0.5625 0 L 0.5625 -0.265625 C 0.757812 -0.285156 0.914062 -0.351562 1.03125 -0.46875 C 1.15625 -0.582031 1.328125 -0.789062 1.546875 -1.09375 L 6.40625 -7.3125 L 2.171875 -12.9375 C 2.054688 -13.09375 1.957031 -13.226562 1.875 -13.34375 C 1.789062 -13.46875 1.710938 -13.5625 1.640625 -13.625 C 1.566406 -13.695312 1.484375 -13.753906 1.390625 -13.796875 C 1.304688 -13.835938 1.191406 -13.859375 1.046875 -13.859375 L 1.046875 -14.125 Z M 5.625 -14.125 "/></g></g></g><g fill="#f4f6fc" fill-opacity="1"><g transform="translate(136.330882, 311.278895)"><g/></g></g><g fill="#f4f6fc" fill-opacity="1"><g transform="translate(146.209473, 311.278895)"><g><path d="M 15 -11.328125 L 14.734375 -11.328125 C 14.734375 -11.671875 14.519531 -11.84375 14.09375 -11.84375 L 4.734375 -11.84375 L 4.734375 -8.390625 L 10.828125 -8.390625 C 11.035156 -8.390625 11.195312 -8.421875 11.3125 -8.484375 C 11.425781 -8.554688 11.484375 -8.691406 11.484375 -8.890625 L 11.765625 -8.890625 L 11.765625 -5.625 L 11.484375 -5.625 C 11.484375 -5.9375 11.269531 -6.09375 10.84375 -6.09375 L 4.734375 -6.09375 L 4.734375 -2.296875 L 14.25 -2.296875 C 14.6875 -2.296875 14.90625 -2.445312 14.90625 -2.75 L 15.171875 -2.75 L 15.171875 0.421875 L 14.90625 0.421875 C 14.90625 0.140625 14.6875 0 14.25 0 L 1.46875 0 L 1.46875 -0.265625 C 1.675781 -0.265625 1.8125 -0.300781 1.875 -0.375 C 1.945312 -0.457031 1.984375 -0.609375 1.984375 -0.828125 L 1.984375 -13.28125 C 1.984375 -13.476562 1.953125 -13.625 1.890625 -13.71875 C 1.835938 -13.8125 1.695312 -13.859375 1.46875 -13.859375 L 1.46875 -14.125 L 14.0625 -14.125 C 14.507812 -14.125 14.734375 -14.269531 14.734375 -14.5625 L 15 -14.5625 Z M 15 -11.328125 "/></g></g></g><g fill="#f4f6fc" fill-opacity="1"><g transform="translate(164.704469, 311.278895)"><g><path d="M 5.625 -14.125 L 5.625 -13.859375 C 5.351562 -13.859375 5.21875 -13.765625 5.21875 -13.578125 C 5.21875 -13.503906 5.316406 -13.34375 5.515625 -13.09375 L 8.15625 -9.5625 L 10.90625 -13.125 C 10.957031 -13.1875 11.015625 -13.265625 11.078125 -13.359375 C 11.140625 -13.453125 11.171875 -13.535156 11.171875 -13.609375 C 11.171875 -13.679688 11.140625 -13.738281 11.078125 -13.78125 C 11.015625 -13.832031 10.9375 -13.859375 10.84375 -13.859375 L 10.84375 -14.125 L 15.15625 -14.125 L 15.15625 -13.859375 C 14.894531 -13.847656 14.679688 -13.789062 14.515625 -13.6875 C 14.347656 -13.582031 14.140625 -13.367188 13.890625 -13.046875 L 9.671875 -7.59375 L 14.78125 -0.78125 C 14.925781 -0.59375 15.050781 -0.460938 15.15625 -0.390625 C 15.257812 -0.328125 15.410156 -0.285156 15.609375 -0.265625 L 15.609375 0 L 11.0625 0 L 11.0625 -0.265625 C 11.21875 -0.265625 11.316406 -0.285156 11.359375 -0.328125 C 11.410156 -0.367188 11.4375 -0.4375 11.4375 -0.53125 C 11.4375 -0.613281 11.363281 -0.742188 11.21875 -0.921875 C 11.082031 -1.097656 10.898438 -1.34375 10.671875 -1.65625 L 7.890625 -5.3125 L 4.734375 -1.234375 C 4.585938 -1.054688 4.472656 -0.914062 4.390625 -0.8125 C 4.316406 -0.707031 4.28125 -0.613281 4.28125 -0.53125 C 4.28125 -0.351562 4.421875 -0.265625 4.703125 -0.265625 L 4.703125 0 L 0.5625 0 L 0.5625 -0.265625 C 0.757812 -0.285156 0.914062 -0.351562 1.03125 -0.46875 C 1.15625 -0.582031 1.328125 -0.789062 1.546875 -1.09375 L 6.40625 -7.3125 L 2.171875 -12.9375 C 2.054688 -13.09375 1.957031 -13.226562 1.875 -13.34375 C 1.789062 -13.46875 1.710938 -13.5625 1.640625 -13.625 C 1.566406 -13.695312 1.484375 -13.753906 1.390625 -13.796875 C 1.304688 -13.835938 1.191406 -13.859375 1.046875 -13.859375 L 1.046875 -14.125 Z M 5.625 -14.125 "/></g></g></g><g fill="#f4f6fc" fill-opacity="1"><g transform="translate(183.199471, 311.278895)"><g><path d="M 9.9375 -14.328125 C 11 -14.328125 11.910156 -14.21875 12.671875 -14 C 13.429688 -13.789062 14.066406 -13.585938 14.578125 -13.390625 C 14.890625 -13.273438 15.1875 -13.148438 15.46875 -13.015625 C 15.75 -12.878906 15.960938 -12.8125 16.109375 -12.8125 C 16.265625 -12.8125 16.394531 -12.890625 16.5 -13.046875 L 16.765625 -12.9375 L 14.84375 -9.859375 L 14.5625 -10.015625 C 14.570312 -10.078125 14.578125 -10.132812 14.578125 -10.1875 C 14.578125 -10.238281 14.578125 -10.285156 14.578125 -10.328125 C 14.578125 -10.441406 14.441406 -10.59375 14.171875 -10.78125 C 13.898438 -10.976562 13.539062 -11.164062 13.09375 -11.34375 C 12.644531 -11.53125 12.128906 -11.691406 11.546875 -11.828125 C 10.972656 -11.960938 10.382812 -12.03125 9.78125 -12.03125 C 8.96875 -12.03125 8.207031 -11.929688 7.5 -11.734375 C 6.789062 -11.546875 6.171875 -11.25 5.640625 -10.84375 C 5.117188 -10.4375 4.703125 -9.921875 4.390625 -9.296875 C 4.085938 -8.671875 3.9375 -7.925781 3.9375 -7.0625 C 3.9375 -6.207031 4.085938 -5.46875 4.390625 -4.84375 C 4.703125 -4.226562 5.125 -3.71875 5.65625 -3.3125 C 6.195312 -2.90625 6.835938 -2.597656 7.578125 -2.390625 C 8.316406 -2.191406 9.132812 -2.09375 10.03125 -2.09375 C 10.6875 -2.09375 11.316406 -2.171875 11.921875 -2.328125 C 12.523438 -2.492188 13.054688 -2.695312 13.515625 -2.9375 C 13.972656 -3.1875 14.34375 -3.445312 14.625 -3.71875 C 14.90625 -4 15.046875 -4.253906 15.046875 -4.484375 C 15.046875 -4.546875 15.035156 -4.601562 15.015625 -4.65625 C 15.003906 -4.707031 14.988281 -4.765625 14.96875 -4.828125 L 15.15625 -4.96875 L 17.15625 -2.109375 L 17 -2.03125 C 16.957031 -2.070312 16.878906 -2.09375 16.765625 -2.09375 C 16.671875 -2.09375 16.550781 -2.046875 16.40625 -1.953125 C 16.269531 -1.859375 16.070312 -1.71875 15.8125 -1.53125 C 14.945312 -0.914062 14.019531 -0.472656 13.03125 -0.203125 C 12.039062 0.0546875 10.960938 0.1875 9.796875 0.1875 C 8.703125 0.1875 7.632812 0.0507812 6.59375 -0.21875 C 5.5625 -0.5 4.644531 -0.9375 3.84375 -1.53125 C 3.039062 -2.125 2.394531 -2.875 1.90625 -3.78125 C 1.425781 -4.6875 1.1875 -5.773438 1.1875 -7.046875 C 1.1875 -8.210938 1.421875 -9.242188 1.890625 -10.140625 C 2.359375 -11.035156 3 -11.789062 3.8125 -12.40625 C 4.625 -13.03125 5.554688 -13.503906 6.609375 -13.828125 C 7.660156 -14.160156 8.769531 -14.328125 9.9375 -14.328125 Z M 9.9375 -14.328125 "/></g></g></g><g fill="#f4f6fc" fill-opacity="1"><g transform="translate(203.848571, 311.278895)"><g><path d="M 5.375 -14.125 L 5.375 -13.859375 C 5.144531 -13.859375 4.992188 -13.816406 4.921875 -13.734375 C 4.847656 -13.648438 4.8125 -13.5 4.8125 -13.28125 L 4.8125 -8.609375 L 13.546875 -8.609375 L 13.546875 -13.28125 C 13.546875 -13.5 13.507812 -13.648438 13.4375 -13.734375 C 13.375 -13.816406 13.21875 -13.859375 12.96875 -13.859375 L 12.96875 -14.125 L 16.84375 -14.125 L 16.84375 -13.859375 C 16.625 -13.859375 16.476562 -13.816406 16.40625 -13.734375 C 16.332031 -13.648438 16.296875 -13.5 16.296875 -13.28125 L 16.296875 -0.859375 C 16.296875 -0.640625 16.332031 -0.484375 16.40625 -0.390625 C 16.476562 -0.304688 16.625 -0.265625 16.84375 -0.265625 L 16.84375 0 L 12.96875 0 L 12.96875 -0.265625 C 13.207031 -0.265625 13.363281 -0.300781 13.4375 -0.375 C 13.507812 -0.457031 13.546875 -0.609375 13.546875 -0.828125 L 13.546875 -6.171875 L 4.8125 -6.171875 L 4.8125 -0.859375 C 4.8125 -0.648438 4.84375 -0.5 4.90625 -0.40625 C 4.96875 -0.3125 5.125 -0.265625 5.375 -0.265625 L 5.375 0 L 1.46875 0 L 1.46875 -0.265625 C 1.71875 -0.265625 1.878906 -0.304688 1.953125 -0.390625 C 2.023438 -0.484375 2.0625 -0.640625 2.0625 -0.859375 L 2.0625 -13.28125 C 2.0625 -13.5 2.023438 -13.648438 1.953125 -13.734375 C 1.890625 -13.816406 1.726562 -13.859375 1.46875 -13.859375 L 1.46875 -14.125 Z M 5.375 -14.125 "/></g></g></g><g fill="#f4f6fc" fill-opacity="1"><g transform="translate(224.497671, 311.278895)"><g><path d="M 6 -5.9375 L 10.609375 -5.9375 L 8.28125 -11.015625 Z M 10.578125 -14.125 L 10.578125 -13.859375 C 10.304688 -13.816406 10.171875 -13.71875 10.171875 -13.5625 C 10.171875 -13.457031 10.203125 -13.34375 10.265625 -13.21875 C 10.328125 -13.101562 10.390625 -12.96875 10.453125 -12.8125 L 15.96875 -1.015625 C 16.101562 -0.742188 16.207031 -0.550781 16.28125 -0.4375 C 16.351562 -0.320312 16.503906 -0.265625 16.734375 -0.265625 L 16.734375 0 L 12.859375 0 L 12.859375 -0.265625 C 13.097656 -0.265625 13.21875 -0.332031 13.21875 -0.46875 C 13.21875 -0.53125 13.191406 -0.625 13.140625 -0.75 C 13.085938 -0.882812 13.015625 -1.039062 12.921875 -1.21875 L 11.734375 -3.71875 L 5.078125 -3.71875 C 4.796875 -3.09375 4.5625 -2.582031 4.375 -2.1875 C 4.195312 -1.800781 4.054688 -1.503906 3.953125 -1.296875 C 3.867188 -1.117188 3.800781 -0.96875 3.75 -0.84375 C 3.695312 -0.71875 3.671875 -0.625 3.671875 -0.5625 C 3.671875 -0.394531 3.765625 -0.296875 3.953125 -0.265625 L 3.953125 0 L 0.5 0 L 0.5 -0.265625 C 0.707031 -0.285156 0.851562 -0.347656 0.9375 -0.453125 C 1.019531 -0.566406 1.117188 -0.753906 1.234375 -1.015625 L 6.546875 -12.921875 C 6.597656 -13.023438 6.644531 -13.128906 6.6875 -13.234375 C 6.726562 -13.335938 6.75 -13.425781 6.75 -13.5 C 6.75 -13.695312 6.613281 -13.816406 6.34375 -13.859375 L 6.34375 -14.125 Z M 10.578125 -14.125 "/></g></g></g><g fill="#f4f6fc" fill-opacity="1"><g transform="translate(244.079426, 311.278895)"><g><path d="M 5.6875 -14.125 L 5.6875 -13.859375 C 5.457031 -13.859375 5.3125 -13.832031 5.25 -13.78125 C 5.1875 -13.726562 5.15625 -13.675781 5.15625 -13.625 C 5.15625 -13.5625 5.226562 -13.457031 5.375 -13.3125 L 13.796875 -4.359375 L 13.796875 -13.3125 C 13.796875 -13.519531 13.765625 -13.660156 13.703125 -13.734375 C 13.648438 -13.816406 13.515625 -13.859375 13.296875 -13.859375 L 13.296875 -14.125 L 16.765625 -14.125 L 16.765625 -13.859375 C 16.566406 -13.859375 16.429688 -13.816406 16.359375 -13.734375 C 16.285156 -13.648438 16.25 -13.5 16.25 -13.28125 L 16.25 -0.875 C 16.25 -0.65625 16.28125 -0.5 16.34375 -0.40625 C 16.414062 -0.3125 16.554688 -0.265625 16.765625 -0.265625 L 16.765625 0 L 13.171875 0 L 13.171875 -0.265625 C 13.273438 -0.265625 13.363281 -0.273438 13.4375 -0.296875 C 13.519531 -0.316406 13.5625 -0.359375 13.5625 -0.421875 C 13.5625 -0.503906 13.53125 -0.578125 13.46875 -0.640625 C 13.40625 -0.710938 13.320312 -0.8125 13.21875 -0.9375 L 4.46875 -10.328125 L 4.46875 -0.8125 C 4.46875 -0.632812 4.5 -0.5 4.5625 -0.40625 C 4.625 -0.3125 4.765625 -0.265625 4.984375 -0.265625 L 4.984375 0 L 1.546875 0 L 1.546875 -0.265625 C 1.753906 -0.265625 1.882812 -0.304688 1.9375 -0.390625 C 1.988281 -0.484375 2.015625 -0.617188 2.015625 -0.796875 L 2.015625 -13.3125 C 2.015625 -13.519531 1.988281 -13.660156 1.9375 -13.734375 C 1.882812 -13.816406 1.753906 -13.859375 1.546875 -13.859375 L 1.546875 -14.125 Z M 5.6875 -14.125 "/></g></g></g><g fill="#f4f6fc" fill-opacity="1"><g transform="translate(264.728526, 311.278895)"><g><path d="M 9.6875 -14.328125 C 10.5 -14.328125 11.347656 -14.234375 12.234375 -14.046875 C 13.128906 -13.867188 14.023438 -13.570312 14.921875 -13.15625 C 15.429688 -12.925781 15.742188 -12.8125 15.859375 -12.8125 C 16.023438 -12.8125 16.15625 -12.878906 16.25 -13.015625 L 16.515625 -12.90625 L 14.625 -9.71875 L 14.359375 -9.890625 C 14.390625 -10.023438 14.40625 -10.140625 14.40625 -10.234375 C 14.40625 -10.378906 14.273438 -10.554688 14.015625 -10.765625 C 13.753906 -10.984375 13.410156 -11.179688 12.984375 -11.359375 C 12.554688 -11.546875 12.0625 -11.703125 11.5 -11.828125 C 10.945312 -11.960938 10.375 -12.03125 9.78125 -12.03125 C 8.9375 -12.03125 8.148438 -11.925781 7.421875 -11.71875 C 6.691406 -11.507812 6.0625 -11.203125 5.53125 -10.796875 C 5 -10.390625 4.582031 -9.878906 4.28125 -9.265625 C 3.976562 -8.660156 3.828125 -7.953125 3.828125 -7.140625 C 3.828125 -6.316406 3.972656 -5.585938 4.265625 -4.953125 C 4.554688 -4.328125 4.953125 -3.800781 5.453125 -3.375 C 5.953125 -2.945312 6.546875 -2.625 7.234375 -2.40625 C 7.921875 -2.195312 8.660156 -2.09375 9.453125 -2.09375 C 10.316406 -2.09375 11.128906 -2.195312 11.890625 -2.40625 C 12.660156 -2.625 13.335938 -2.941406 13.921875 -3.359375 L 13.921875 -4.96875 L 10.5625 -4.96875 C 10.40625 -4.96875 10.265625 -4.925781 10.140625 -4.84375 C 10.015625 -4.769531 9.953125 -4.65625 9.953125 -4.5 L 9.6875 -4.5 L 9.6875 -7.921875 L 9.953125 -7.921875 C 9.953125 -7.765625 10.015625 -7.644531 10.140625 -7.5625 C 10.265625 -7.488281 10.40625 -7.453125 10.5625 -7.453125 L 17.03125 -7.453125 L 17.03125 -7.1875 C 16.789062 -7.144531 16.671875 -6.941406 16.671875 -6.578125 L 16.671875 -2.734375 C 16.671875 -2.609375 16.691406 -2.503906 16.734375 -2.421875 C 16.785156 -2.335938 16.878906 -2.28125 17.015625 -2.25 L 17.015625 -1.984375 C 15.835938 -1.304688 14.59375 -0.773438 13.28125 -0.390625 C 11.96875 -0.00390625 10.691406 0.1875 9.453125 0.1875 C 8.191406 0.1875 7.046875 0.0234375 6.015625 -0.296875 C 4.992188 -0.617188 4.113281 -1.085938 3.375 -1.703125 C 2.632812 -2.328125 2.0625 -3.082031 1.65625 -3.96875 C 1.257812 -4.863281 1.0625 -5.875 1.0625 -7 C 1.0625 -7.875 1.1875 -8.660156 1.4375 -9.359375 C 1.6875 -10.054688 2.019531 -10.675781 2.4375 -11.21875 C 2.851562 -11.757812 3.347656 -12.226562 3.921875 -12.625 C 4.492188 -13.019531 5.09375 -13.34375 5.71875 -13.59375 C 6.351562 -13.84375 7.007812 -14.023438 7.6875 -14.140625 C 8.375 -14.265625 9.039062 -14.328125 9.6875 -14.328125 Z M 9.6875 -14.328125 "/></g></g></g><g fill="#f4f6fc" fill-opacity="1"><g transform="translate(285.377626, 311.278895)"><g><path d="M 15 -11.328125 L 14.734375 -11.328125 C 14.734375 -11.671875 14.519531 -11.84375 14.09375 -11.84375 L 4.734375 -11.84375 L 4.734375 -8.390625 L 10.828125 -8.390625 C 11.035156 -8.390625 11.195312 -8.421875 11.3125 -8.484375 C 11.425781 -8.554688 11.484375 -8.691406 11.484375 -8.890625 L 11.765625 -8.890625 L 11.765625 -5.625 L 11.484375 -5.625 C 11.484375 -5.9375 11.269531 -6.09375 10.84375 -6.09375 L 4.734375 -6.09375 L 4.734375 -2.296875 L 14.25 -2.296875 C 14.6875 -2.296875 14.90625 -2.445312 14.90625 -2.75 L 15.171875 -2.75 L 15.171875 0.421875 L 14.90625 0.421875 C 14.90625 0.140625 14.6875 0 14.25 0 L 1.46875 0 L 1.46875 -0.265625 C 1.675781 -0.265625 1.8125 -0.300781 1.875 -0.375 C 1.945312 -0.457031 1.984375 -0.609375 1.984375 -0.828125 L 1.984375 -13.28125 C 1.984375 -13.476562 1.953125 -13.625 1.890625 -13.71875 C 1.835938 -13.8125 1.695312 -13.859375 1.46875 -13.859375 L 1.46875 -14.125 L 14.0625 -14.125 C 14.507812 -14.125 14.734375 -14.269531 14.734375 -14.5625 L 15 -14.5625 Z M 15 -11.328125 "/></g></g></g></svg>
